<svg width="10" height="10" viewBox="0 0 10 10" fill="none" xmlns="http://www.w3.org/2000/svg">
<path d="M5 7.16667C4.73333 7.16667 4.47222 7.11111 4.21667 7C3.96111 6.88889 3.73333 6.73333 3.53333 6.53333L0.133333 3.13333C0.0444444 3.06667 0 2.97222 0 2.85C0 2.72778 0.0388889 2.62778 0.116667 2.55C0.194444 2.47222 0.294444 2.43333 0.416667 2.43333C0.538889 2.43333 0.633333 2.47778 0.7 2.56667L4.13333 5.96667C4.35556 6.21111 4.64444 6.33333 5 6.33333C5.35556 6.33333 5.65556 6.21111 5.9 5.96667L9.3 2.53333C9.36667 2.46667 9.46111 2.43333 9.58333 2.43333C9.70556 2.43333 9.80556 2.47222 9.88333 2.55C9.96111 2.62778 10 2.72778 10 2.85C10 2.97222 9.95556 3.06667 9.86667 3.13333L6.46667 6.53333C6.26667 6.73333 6.03889 6.88889 5.78333 7C5.52778 7.11111 5.26667 7.16667 5 7.16667Z" fill="#E9EFFC"/>
</svg>
